<svg width="80" height="63" viewBox="0 0 80 63" fill="none" xmlns="http://www.w3.org/2000/svg">
<path d="M25 36H22.5C16.9766 36 12.5 40.0359 12.5 45.0169V53.9831C12.5 58.9627 16.9766 63 22.5 63H25C27.7609 63 30 60.9806 30 58.4916V40.5084C30 38.018 27.7609 36 25 36ZM57.5 36H55C52.2391 36 50 38.018 50 40.5084V58.4916C50 60.9806 52.2391 63 55 63H57.5C63.0234 63 67.5 58.9627 67.5 53.9831V45.0169C67.5 40.0373 63.0234 36 57.5 36ZM40 0C17.6422 0 0.714063 16.7527 0 36V51.75C0 52.9931 1.11875 54 2.5 54H5C6.38125 54 7.5 52.9931 7.5 51.75V36C7.5 19.8745 22.0828 6.77812 40 6.77531C57.9172 6.77812 72.5 19.8745 72.5 36V51.75C72.5 52.9931 73.6187 54 75 54H77.5C78.8813 54 80 52.9931 80 51.75V36C79.2859 16.7527 62.3578 0 40 0Z" fill="white"/>
</svg>
