<svg width="62" height="62" viewBox="0 0 62 62" fill="none" xmlns="http://www.w3.org/2000/svg">
<circle cx="31" cy="31" r="30" stroke="black" stroke-width="2"/>
<path d="M30.6144 17.4131C26.717 17.4131 24.1927 19.0319 22.2108 21.9189C21.8513 22.4426 21.9621 23.1606 22.4636 23.5461L24.57 25.1652C25.0765 25.5546 25.7971 25.4635 26.1936 24.9599C27.4167 23.4066 28.324 22.5122 30.2345 22.5122C31.7367 22.5122 33.5947 23.4922 33.5947 24.9689C33.5947 26.0853 32.6856 26.6586 31.2024 27.5015C29.4728 28.4846 27.1839 29.7081 27.1839 32.7686V33.2531C27.1839 33.9092 27.7086 34.4411 28.3558 34.4411H31.8944C32.5416 34.4411 33.0663 33.9092 33.0663 33.2531V32.9673C33.0663 30.8458 39.1829 30.7574 39.1829 25.0163C39.1829 20.6928 34.759 17.4131 30.6144 17.4131ZM30.1251 35.8993C28.2601 35.8993 26.7428 37.4375 26.7428 39.3283C26.7428 41.2189 28.2601 42.7571 30.1251 42.7571C31.9902 42.7571 33.5075 41.2189 33.5075 39.3282C33.5075 37.4375 31.9902 35.8993 30.1251 35.8993Z" fill="black"/>
</svg>
