<svg width="62" height="62" viewBox="0 0 62 62" fill="none" xmlns="http://www.w3.org/2000/svg">
<circle cx="31" cy="31" r="30" stroke="black" stroke-width="2"/>
<g clip-path="url(#clip0_129_21)">
<path d="M33.1586 32.5923L32.9774 32.1713C32.7589 31.6638 32.3478 31.2639 31.8344 31.0595C31.3211 30.8551 30.7476 30.863 30.2401 31.0815L30.0678 31.1556C29.7321 31.2997 29.3644 31.353 29.0016 31.3101C28.6388 31.2672 28.2936 31.1297 28.0007 30.9113L27.5845 30.6029C27.2913 30.3843 27.0608 30.0923 26.9162 29.7564C26.7716 29.4205 26.718 29.0525 26.7607 28.6893L26.7755 28.5128C26.8398 27.9647 26.6839 27.4134 26.3422 26.9801C26.0004 26.5467 25.5007 26.2667 24.9527 26.2015L24.4985 26.1475C23.9503 26.0832 23.3991 26.239 22.9657 26.5808C22.5324 26.9225 22.2524 27.4223 22.1871 27.9703L22.1532 28.155C22.1107 28.5161 21.9745 28.8598 21.7581 29.1519C21.5416 29.444 21.2525 29.6744 20.9194 29.8202L20.4314 30.0302C20.0948 30.1767 19.7255 30.2317 19.3608 30.1895C18.9961 30.1473 18.6491 30.0095 18.3548 29.7901L18.2069 29.6836C17.764 29.3543 17.2085 29.2143 16.6624 29.2941C16.1163 29.374 15.6243 29.6672 15.2942 30.1095L15.0212 30.4765C14.6919 30.9194 14.5518 31.4749 14.6317 32.021C14.7115 32.5671 15.0048 33.0592 15.4471 33.3892L15.5855 33.4998C15.8786 33.7184 16.1091 34.0103 16.2537 34.3462C16.3983 34.6821 16.4519 35.0502 16.4092 35.4134L16.3471 35.9278C16.3044 36.2906 16.167 36.6358 15.9488 36.9288C15.7306 37.2218 15.4391 37.4523 15.1037 37.5971L14.9315 37.6712C14.424 37.8897 14.024 38.3008 13.8196 38.8141C13.6152 39.3275 13.6231 39.901 13.8416 40.4085L14.0228 40.8295C14.2413 41.337 14.6524 41.7369 15.1658 41.9413C15.6791 42.1457 16.2526 42.1378 16.7601 41.9193L16.9323 41.8452C17.2681 41.7011 17.6358 41.6478 17.9986 41.6907C18.3614 41.7336 18.7066 41.8711 18.9994 42.0895L19.4157 42.3979C19.7089 42.6165 19.9394 42.9085 20.084 43.2444C20.2286 43.5803 20.2822 43.9483 20.2395 44.3115L20.2247 44.488C20.1604 45.0361 20.3163 45.5873 20.658 46.0207C20.9998 46.454 21.4995 46.7341 22.0475 46.7993L22.5113 46.8492C23.0594 46.9135 23.6107 46.7576 24.044 46.4159C24.4774 46.0741 24.7574 45.5744 24.8226 45.0264L24.8374 44.8499C24.8803 44.4853 25.0188 44.1385 25.2388 43.8447C25.4588 43.5508 25.7526 43.3203 26.0904 43.1765L26.5688 42.9706C26.9054 42.8241 27.2747 42.7691 27.6394 42.8113C28.0041 42.8535 28.3511 42.9913 28.6454 43.2107L28.7933 43.3172C29.2362 43.6464 29.7917 43.7865 30.3378 43.7067C30.8838 43.6268 31.3759 43.3336 31.706 42.8912L31.979 42.5242C32.3083 42.0814 32.4483 41.5259 32.3685 40.9798C32.2886 40.4337 31.9954 39.9416 31.5531 39.6116L31.4147 39.501C31.1216 39.2824 30.8911 38.9905 30.7465 38.6546C30.6019 38.3187 30.5483 37.9506 30.591 37.5874L30.6531 37.073C30.6958 36.7102 30.8332 36.365 31.0514 36.072C31.2696 35.779 31.5611 35.5485 31.8965 35.4037L32.0687 35.3296C32.5762 35.1111 32.9762 34.7 33.1806 34.1867C33.3849 33.6733 33.377 33.0998 33.1586 32.5923Z" stroke="black" stroke-width="2" stroke-linecap="round" stroke-linejoin="round"/>
<path d="M20.6297 37.736C21.3121 39.3212 23.1504 40.0531 24.7357 39.3708C26.3209 38.6884 27.0528 36.8501 26.3705 35.2648C25.6881 33.6796 23.8498 32.9476 22.2645 33.63C20.6793 34.3124 19.9473 36.1507 20.6297 37.736Z" stroke="black" stroke-width="2" stroke-linecap="round" stroke-linejoin="round"/>
</g>
<g clip-path="url(#clip1_129_21)">
<path d="M41.6475 14.8782L41.3102 14.7911C40.9036 14.6862 40.472 14.7471 40.1103 14.9604C39.7486 15.1737 39.4864 15.522 39.3815 15.9286L39.3459 16.0666C39.2762 16.3353 39.1371 16.5811 38.9425 16.7791C38.7479 16.9772 38.5046 17.1205 38.2371 17.1949L37.858 17.3015C37.5902 17.3759 37.3076 17.3785 37.0384 17.309C36.7693 17.2396 36.5232 17.1005 36.3249 16.9058L36.2257 16.8148C35.9263 16.5211 35.5226 16.3582 35.1032 16.3618C34.6837 16.3655 34.2829 16.5354 33.9886 16.8344L33.7448 17.0821C33.4511 17.3816 33.2882 17.7853 33.2919 18.2047C33.2955 18.6241 33.4655 19.025 33.7644 19.3192L33.8596 19.4256C34.0568 19.6191 34.1999 19.8609 34.2746 20.1269C34.3494 20.3929 34.3533 20.6739 34.2859 20.9418L34.185 21.3328C34.1163 21.6032 33.9775 21.8507 33.7824 22.0502C33.5873 22.2497 33.343 22.3941 33.0742 22.4688L32.9414 22.5081C32.5375 22.6209 32.1948 22.8895 31.9886 23.2548C31.7825 23.62 31.7297 24.0522 31.8418 24.4564L31.9353 24.7912C32.0481 25.1951 32.3167 25.5378 32.682 25.744C33.0472 25.9502 33.4794 26.003 33.8836 25.8908L34.0144 25.8592C34.2822 25.7847 34.5648 25.7821 34.8339 25.8516C35.103 25.921 35.3491 26.0601 35.5475 26.2548L35.8276 26.5315C36.0258 26.726 36.1693 26.9692 36.2438 27.2367C36.3182 27.5042 36.3211 27.7865 36.252 28.0555L36.2163 28.1934C36.1114 28.6 36.1723 29.0317 36.3856 29.3934C36.5989 29.7551 36.9472 30.0172 37.3538 30.1222L37.6911 30.2092C38.0977 30.3141 38.5293 30.2533 38.891 30.0399C39.2528 29.8266 39.5149 29.4784 39.6198 29.0718L39.6555 28.9338C39.7251 28.665 39.8642 28.4193 40.0588 28.2212C40.2534 28.0232 40.4967 27.8798 40.7642 27.8055L41.1433 27.6989C41.4111 27.6245 41.6937 27.6219 41.9629 27.6913C42.232 27.7608 42.4781 27.8998 42.6764 28.0945L42.7756 28.1855C43.075 28.4792 43.4787 28.6422 43.8982 28.6385C44.3176 28.6348 44.7184 28.4649 45.0127 28.166L45.2585 27.9105C45.5522 27.6111 45.7151 27.2074 45.7114 26.788C45.7078 26.3685 45.5378 25.9677 45.2389 25.6735L45.1398 25.5825C44.9407 25.387 44.7967 25.1424 44.7226 24.8735C44.6484 24.6045 44.6466 24.3207 44.7174 24.0508L44.8163 23.6676C44.885 23.3971 45.0239 23.1496 45.2189 22.9502C45.414 22.7507 45.6583 22.6063 45.9271 22.5316L46.0599 22.4923C46.4638 22.3794 46.8065 22.1108 47.0127 21.7456C47.2189 21.3803 47.2717 20.9481 47.1595 20.544L47.066 20.2092C46.9532 19.8052 46.6846 19.4625 46.3194 19.2564C45.9541 19.0502 45.5219 18.9974 45.1178 19.1095L44.987 19.1412C44.7192 19.2156 44.4365 19.2182 44.1674 19.1488C43.8983 19.0793 43.6522 18.9402 43.4538 18.7455L43.1737 18.4688C42.9755 18.2743 42.832 18.0311 42.7576 17.7637C42.6831 17.4962 42.6803 17.2138 42.7494 16.9449L42.785 16.8069C42.8899 16.4003 42.829 15.9687 42.6157 15.607C42.4024 15.2452 42.0541 14.9831 41.6475 14.8782Z" stroke="black" stroke-width="2" stroke-linecap="round" stroke-linejoin="round"/>
<path d="M38.9072 24.7998C40.1773 25.1276 41.4726 24.3637 41.8003 23.0936C42.1281 21.8236 41.3642 20.5283 40.0941 20.2005C38.8241 19.8728 37.5288 20.6366 37.201 21.9067C36.8732 23.1768 37.6371 24.4721 38.9072 24.7998Z" stroke="black" stroke-width="2" stroke-linecap="round" stroke-linejoin="round"/>
</g>
<defs>
<clipPath id="clip0_129_21">
<rect width="25" height="25" fill="white" transform="translate(30.0391 20.0762) rotate(66.7101)"/>
</clipPath>
<clipPath id="clip1_129_21">
<rect width="19" height="19" fill="white" transform="translate(32.6758 10.9277) rotate(14.4703)"/>
</clipPath>
</defs>
</svg>
