<svg width="106" height="106" viewBox="0 0 106 106" fill="none" xmlns="http://www.w3.org/2000/svg">
<path d="M44.1667 39.75C44.1667 38.5786 44.632 37.4552 45.4603 36.6269C46.2886 35.7987 47.412 35.3333 48.5834 35.3333C49.7547 35.3333 50.8781 35.7987 51.7064 36.6269C52.5347 37.4552 53 38.5786 53 39.75V59.4925L58.3442 60.0667L80.1625 69.7392C82.5034 70.7992 83.9167 73.14 83.9167 75.7017V94.9583C83.7842 98.58 80.9134 101.451 77.2917 101.583H48.5834C46.905 101.583 45.315 100.921 44.1667 99.6842L22.525 81.1342L25.7934 77.7333C26.6325 76.8058 27.825 76.32 29.0617 76.32H30.0334L44.1667 83.9167V39.75ZM48.5834 22.0833C53.2689 22.0833 57.7625 23.9446 61.0756 27.2578C64.3887 30.5709 66.25 35.0645 66.25 39.75C66.25 46.375 62.7167 51.9842 57.4167 55.0317V49.6433C60.1109 47.2142 61.8334 43.6808 61.8334 39.75C61.8334 36.2359 60.4374 32.8657 57.9525 30.3808C55.4677 27.896 52.0975 26.5 48.5834 26.5C45.0693 26.5 41.6991 27.896 39.2142 30.3808C36.7293 32.8657 35.3334 36.2359 35.3334 39.75C35.3334 43.6808 37.0559 47.2142 39.75 49.6433V55.0317C34.45 51.9842 30.9167 46.375 30.9167 39.75C30.9167 35.0645 32.778 30.5709 36.0912 27.2578C39.4043 23.9446 43.8979 22.0833 48.5834 22.0833ZM48.5834 13.25C55.6116 13.25 62.352 16.042 67.3217 21.0117C72.2914 25.9814 75.0834 32.7218 75.0834 39.75C75.0834 47.2583 71.9475 54.0158 66.9567 58.8742L62.54 56.8867C67.4867 52.8233 70.6667 46.64 70.6667 39.75C70.6667 33.8931 68.3401 28.2762 64.1986 24.1347C60.0572 19.9933 54.4402 17.6667 48.5834 17.6667C42.7265 17.6667 37.1095 19.9933 32.9681 24.1347C28.8267 28.2762 26.5 33.8931 26.5 39.75C26.5 48.8042 31.9325 56.5775 39.75 59.9783V64.7483C29.4592 61.0825 22.0834 51.2775 22.0834 39.75C22.0834 32.7218 24.8753 25.9814 29.845 21.0117C34.8148 16.042 41.5551 13.25 48.5834 13.25Z" fill="black"/>
</svg>
